<?xml version="1.0" encoding="UTF-8"?>
<svg id="Calque_1" xmlns="http://www.w3.org/2000/svg" version="1.1" viewBox="0 0 482.2 343.2">
  <!-- Generator: Adobe Illustrator 29.6.1, SVG Export Plug-In . SVG Version: 2.1.1 Build 9)  -->
  <defs>
    <style>
      .st0 {
        fill: #fff;
      }
    </style>
  </defs>
  <path class="st0" d="M68.4,160.2h.7c2.7,0,4.2-1.6,4.2-4.4v-31c2.8-5.4,8-8.9,13.4-8.9,7.8,0,11.4,4.5,11.4,14.1v25.9c0,2.9,1.5,4.4,4.2,4.4h.7c2.7,0,4.2-1.6,4.2-4.4v-31c2.8-5.4,8-8.9,13.4-8.9,7.7,0,11.4,4.4,11.4,13.6v26.4c0,2.9,1.5,4.4,4.2,4.4h.7c2.7,0,4.2-1.6,4.2-4.4v-26.8c0-14.2-7.2-22-20.2-22s-13.2,3.3-17.3,9.1c-3.2-5.9-8.9-9.1-16.5-9.1s-10.5,2.3-14.3,6.4c-.5-3.7-2.3-5.6-5.4-5.6s-3.5.5-3.5,2v46c0,2.9,1.5,4.4,4.2,4.4Z"/>
  <path class="st0" d="M175.6,161.1c15.4,0,26.5-11.3,26.5-26.9s-11.1-27.1-26.5-27.1-26.6,11.3-26.6,26.9,11.2,27.1,26.6,27.1ZM158.3,133.9c0-10.7,7.3-18.5,17.3-18.5s17.2,7.9,17.2,18.7-7.2,18.5-17.2,18.5-17.3-8.1-17.3-18.7Z"/>
  <path class="st0" d="M246.3,130.3v25.5c0,2.9,1.5,4.4,4.2,4.4h.7c2.7,0,4.2-1.6,4.2-4.4v-25.9c0-14.3-7.7-22.9-20.7-22.9s-11.6,2.3-15.6,6.6c-.4-3.9-2.3-5.8-5.5-5.8s-3.5.5-3.5,2v46c0,2.9,1.5,4.4,4.2,4.4h.7c2.7,0,4.2-1.6,4.2-4.4v-30.5c2.9-6,8.3-9.4,14.9-9.4s11.9,5.3,11.9,14.5Z"/>
  <path class="st0" d="M263.3,146c0,9.2,7,15,18.2,15s12.9-2.5,17.2-6.9c.3,4.1,2.1,6.1,5.4,6.1s3.5-.4,3.5-2v-30.9c0-12.5-8.1-20.3-21.1-20.3s-21.2,8.3-21.2,12.6,1.2,3.6,2.2,4.2c1,.7,2.2.9,2.8.9h1.3v-.9c2.9-5.3,8-8.1,14.4-8.1s12.6,4.1,12.6,11.8v.5c-24.3.6-35.1,6.1-35.1,17.9ZM298.4,135.9v3.2c0,8-6.9,13.8-16.4,13.8s-9.5-2.6-9.5-6.9c0-6.4,7.3-9.5,24.3-10.1h1.6Z"/>
  <path class="st0" d="M341.6,161.1c14.9,0,22.4-9.5,22.4-14.9s-3.4-4.6-5.2-4.6-1.4.4-1.6.9c-2.9,6.8-8,10.1-15.5,10.1s-17.2-7.8-17.2-18.6,7.2-18.4,17.2-18.4,12.7,3.3,15.6,10.1c.2.4.6.8,1.6.8,1.8,0,5.2-1.3,5.2-4.6,0-5.3-7.5-14.9-22.4-14.9s-26.5,11.6-26.5,26.9,11.4,27.1,26.5,27.1Z"/>
  <path class="st0" d="M395.1,161.1c15.4,0,26.5-11.3,26.5-26.9s-11.1-27.1-26.5-27.1-26.6,11.3-26.6,26.9,11.2,27.1,26.6,27.1ZM377.8,133.9c0-10.7,7.3-18.5,17.3-18.5s17.2,7.9,17.2,18.7-7.2,18.5-17.2,18.5-17.3-8.1-17.3-18.7Z"/>
  <path class="st0" d="M88.5,227.3h-.8l-.3.7c-1.4,3.2-4.2,4.9-7.8,4.9s-8.7-1.5-8.7-12.3v-33.7h15.6c2.2,0,2.3-1.6,2.3-2s-.1-1.9-2.3-1.9h-15.6v-10.7c0-1.3-.9-2.3-2.2-2.3s-2,1-2,2.3v10.7h-7.9c-2.2,0-2.3,1.6-2.3,2s.1,1.9,2.3,1.9h7.9v33.8c0,10.9,4.2,16.2,12.9,16.2s6.5-1.1,8.7-3.3c1.5-1.5,2.3-3.2,2.3-4.1,0-1.3-1.1-2.2-2-2.2Z"/>
  <path class="st0" d="M119.2,182.2c-14.6,0-26.1,12-26.1,27.3s11.2,27.4,26.7,27.4,15.1-4,17.5-6.4c3.4-3.4,4.5-6.6,4.5-7.6,0-1.5-1.1-2.3-2.1-2.3l-1.1.3-.2.6c-1.9,5.6-7.7,11.5-18.6,11.5s-22.5-9.6-22.5-23.4v-.3h43.4c1.4,0,2.3-.9,2.3-2.4,0-14.2-10.1-24.6-23.9-24.6ZM97.6,205.3c1.9-11.2,10.8-19.2,21.6-19.2s19.1,7.8,19.8,19.2h-41.3Z"/>
  <path class="st0" d="M154.9,169.5c-1.8,0-1.9,1.3-1.9,1.4v63.2c0,1.2.8,2.1,2,2.1h.2c1.2,0,2-.9,2-2.1v-61.7c0-2.8-1.9-3-2.3-3Z"/>
  <path class="st0" d="M193.4,182.2c-14.6,0-26.1,12-26.1,27.3s11.2,27.4,26.7,27.4,15.1-4,17.5-6.4c3.4-3.4,4.5-6.6,4.5-7.6,0-1.5-1.1-2.3-2.1-2.3l-1.1.3-.2.6c-1.9,5.6-7.7,11.5-18.6,11.5s-22.5-9.6-22.5-23.4v-.3h43.4c1.4,0,2.3-.9,2.3-2.4,0-14.2-10.1-24.6-23.9-24.6ZM171.8,205.3c1.9-11.2,10.8-19.2,21.6-19.2s19.1,7.8,19.8,19.2h-41.3Z"/>
  <path class="st0" d="M249.8,186.3c11.1,0,16.9,6.4,18.6,11.8l.3.9h.9c1.1,0,2.3-.9,2.3-2.3s-1.4-4.6-4.6-7.9c-2.9-2.9-8.4-6.4-17.5-6.4-15.5,0-26.7,11.4-26.7,27.2s11.2,27.5,26.7,27.5,15.1-4,17.4-6.4c3.4-3.4,4.7-6.8,4.7-8s-1.1-2.2-2.2-2.2l-1.1.3-.2.6c-1.6,5.4-7.5,11.8-18.6,11.8s-22.5-9.7-22.5-23.5,9.5-23.2,22.5-23.2Z"/>
  <path class="st0" d="M304.2,182.2c-15.3,0-26.9,11.7-26.9,27.3s11.5,27.4,26.9,27.4,26.6-11.7,26.6-27.2-11.4-27.5-26.6-27.5ZM304.2,232.9c-12.9,0-22.6-10.1-22.6-23.4s9.7-23.4,22.6-23.4,22.5,10.1,22.5,23.6-9.7,23.2-22.5,23.2Z"/>
  <path class="st0" d="M400.1,182.2c-8.5,0-15.7,4.4-19.1,11.5-2.6-6-8.5-11.5-18.9-11.5s-13.5,3.5-17.4,9.2v-5.3c0-2.2-.7-3.3-2.2-3.3s-1.9.7-1.9,1.6v49.8c0,1.4,1,2.1,1.9,2.1h.3c.9,0,1.9-.6,1.9-2.1v-34.4c2.7-9.3,10.9-13.5,17.3-13.5,11.4,0,16.5,7.8,16.5,15.6v32.3c0,1.4,1,2.1,1.9,2.1h.3c1.2,0,2-.8,2-2.1v-33.8c1.8-9.7,9.9-14.1,17.2-14.1,10.4,0,16.5,7.6,16.5,20.2v27.7c0,1.4,1,2.1,1.9,2.1h.3c1.2,0,2-.8,2-2.1v-27.9c0-14.8-7.9-24-20.7-24Z"/>
</svg>